<svg width="100" height="63" viewBox="0 0 100 63" fill="none" xmlns="http://www.w3.org/2000/svg">
<rect x="0.5" y="0.5" width="99" height="61.5" rx="5.5" fill="url(#paint0_linear_424_67016)" stroke="black"/>
<path d="M20.3991 39.1C19.4631 38.644 18.9951 37.816 18.9951 36.616C18.9951 35.416 19.4751 34.576 20.4351 34.096C28.6671 29.224 33.3951 26.416 34.6191 25.672C35.8431 24.928 36.5751 24.52 36.8151 24.448C37.0791 24.328 37.3911 24.268 37.7511 24.268C38.3991 24.268 39.0711 24.856 39.7671 26.032C40.2231 26.776 40.4511 27.34 40.4511 27.724C40.4511 28.084 40.3671 28.396 40.1991 28.66C39.9831 29.044 39.4911 29.488 38.7231 29.992C31.5711 34.216 27.8511 36.424 27.5631 36.616L38.7231 43.24C39.1791 43.504 39.5031 43.72 39.6951 43.888C40.2231 44.32 40.4871 44.788 40.4871 45.292C40.4871 45.772 40.2711 46.36 39.8391 47.056C39.4311 47.728 39.0591 48.208 38.7231 48.496C38.3871 48.784 38.0391 48.928 37.6791 48.928C37.1991 48.928 36.5751 48.7 35.8071 48.244L20.3991 39.1ZM47.3614 49.288C47.1694 49.696 47.0134 49.996 46.8934 50.188C46.7974 50.38 46.6174 50.56 46.3534 50.728C46.1134 50.92 45.7894 51.016 45.3814 51.016C44.9734 51.016 44.3734 50.836 43.5814 50.476C42.7894 50.116 42.2494 49.792 41.9614 49.504C41.6974 49.24 41.5654 48.94 41.5654 48.604C41.5654 48.268 41.7094 47.668 41.9974 46.804L53.5894 22.576C54.0454 21.664 54.4534 21.136 54.8134 20.992C55.0054 20.896 55.2814 20.848 55.6414 20.848C56.0254 20.848 56.6374 21.04 57.4774 21.424C58.7734 22.048 59.4214 22.732 59.4214 23.476C59.4214 23.788 59.2534 24.388 58.9174 25.276L47.3614 49.288ZM80.5306 34.096C81.4906 34.576 81.9706 35.416 81.9706 36.616C81.9706 37.816 81.5026 38.644 80.5666 39.1L65.1946 48.244C63.9706 49.036 62.9866 49.12 62.2426 48.496C61.9066 48.208 61.5586 47.776 61.1986 47.2C60.7186 46.408 60.4786 45.832 60.4786 45.472C60.4786 45.112 60.5506 44.8 60.6946 44.536C60.9586 44.128 61.4746 43.696 62.2426 43.24L73.4386 36.616L62.2786 29.992C61.8466 29.728 61.5226 29.512 61.3066 29.344C60.7786 28.888 60.5146 28.396 60.5146 27.868C60.5146 27.388 60.7186 26.812 61.1266 26.14C61.8706 24.892 62.5666 24.268 63.2146 24.268C63.7906 24.268 64.4386 24.496 65.1586 24.952L80.5306 34.096Z" fill="white"/>
<line x1="0.5" y1="11.5" x2="13.5" y2="11.5" stroke="black" stroke-linecap="round"/>
<line x1="17.5" y1="11.5" x2="20.5" y2="11.5" stroke="black" stroke-linecap="round"/>
<line x1="24.5" y1="11.5" x2="99.5" y2="11.5" stroke="black" stroke-linecap="round"/>
<defs>
<linearGradient id="paint0_linear_424_67016" x1="6" y1="-4.31034" x2="99.658" y2="60.6315" gradientUnits="userSpaceOnUse">
<stop stop-color="white"/>
<stop offset="0.484375" stop-color="#FA00FF"/>
<stop offset="1" stop-color="#9E00FF"/>
</linearGradient>
</defs>
</svg>
